<svg width="88" height="44" viewBox="0 0 88 44" fill="none" xmlns="http://www.w3.org/2000/svg">
<mask id="mask0_2005_86" style="mask-type:luminance" maskUnits="userSpaceOnUse" x="0" y="0" width="88" height="44">
<path d="M88 0H0V44H88V0Z" fill="white"/>
</mask>
<g mask="url(#mask0_2005_86)">
<path d="M22.163 44C34.4032 44 44.3259 34.1503 44.3259 22C44.3259 9.84974 34.4032 0 22.163 0C9.9227 0 0 9.84974 0 22C0 34.1503 9.9227 44 22.163 44Z" fill="#428CFD"/>
<path d="M28.1719 30.013V21.3738C28.1719 20.7121 28.0365 20.1382 27.7656 19.6522C27.5052 19.1559 27.1094 18.7733 26.5781 18.5045C26.0469 18.2356 25.3907 18.1012 24.6094 18.1012C23.8803 18.1012 23.2396 18.2253 22.6875 18.4735C22.1459 18.7216 21.7188 19.0474 21.4062 19.4506C21.1042 19.8539 20.9531 20.2881 20.9531 20.7535H18.0625C18.0625 20.1537 18.2187 19.5592 18.5313 18.9698C18.8437 18.3804 19.2917 17.8479 19.875 17.3722C20.4688 16.8862 21.1771 16.5036 22 16.2245C22.8333 15.935 23.7604 15.7902 24.7813 15.7902C26.0104 15.7902 27.0938 15.997 28.0312 16.4106C28.9792 16.8242 29.7188 17.4498 30.25 18.2874C30.7917 19.1145 31.0625 20.1537 31.0625 21.4049V29.2219C31.0625 29.7804 31.1094 30.3749 31.2032 31.0056C31.3073 31.6364 31.4583 32.1792 31.6563 32.6342V32.8824H28.6407C28.4948 32.5515 28.3802 32.112 28.2969 31.564C28.2136 31.0056 28.1719 30.4886 28.1719 30.013ZM28.6719 22.7077L28.7031 24.7241H25.7813C24.9584 24.7241 24.224 24.7912 23.5781 24.9256C22.9323 25.0498 22.3907 25.2411 21.9531 25.4995C21.5156 25.7581 21.1823 26.0838 20.9531 26.4767C20.724 26.8592 20.6094 27.3091 20.6094 27.8261C20.6094 28.3534 20.7292 28.8342 20.9688 29.2685C21.2084 29.7028 21.5677 30.0492 22.0469 30.3076C22.5365 30.5558 23.1354 30.6799 23.8437 30.6799C24.7292 30.6799 25.5104 30.4938 26.1875 30.1215C26.8646 29.7493 27.4011 29.2944 27.7969 28.7566C28.2032 28.219 28.4219 27.6968 28.4531 27.1901L29.6875 28.5705C29.6146 29.0048 29.4167 29.4856 29.0938 30.013C28.7709 30.5404 28.3386 31.047 27.7969 31.533C27.2656 32.0086 26.6302 32.4067 25.8906 32.7272C25.1615 33.0375 24.3386 33.1925 23.4219 33.1925C22.276 33.1925 21.2708 32.9702 20.4062 32.5256C19.5521 32.081 18.8854 31.4865 18.4062 30.7419C17.9375 29.9871 17.7031 29.1444 17.7031 28.2138C17.7031 27.3142 17.8803 26.5232 18.2344 25.8408C18.5886 25.148 19.099 24.5741 19.7656 24.1191C20.4323 23.6538 21.2344 23.3023 22.1719 23.0645C23.1094 22.8266 24.1563 22.7077 25.3125 22.7077H28.6719ZM38.75 9.05882V32.8824H35.8437V9.05882H38.75Z" fill="white"/>
<path d="M53.6069 16.1004V18.3028H44.4663V16.1004H53.6069ZM47.5601 12.0212H50.4507V28.7256C50.4507 29.2944 50.5393 29.7235 50.7163 30.013C50.8934 30.3025 51.1225 30.4938 51.4038 30.5869C51.685 30.6799 51.9871 30.7265 52.31 30.7265C52.5496 30.7265 52.7996 30.7058 53.0601 30.6644C53.3309 30.6127 53.534 30.5714 53.6695 30.5404L53.685 32.8824C53.4559 32.9547 53.1538 33.0219 52.7788 33.084C52.4142 33.1564 51.9715 33.1925 51.4507 33.1925C50.7423 33.1925 50.0913 33.0529 49.4975 32.7738C48.9038 32.4946 48.4299 32.0293 48.0757 31.3779C47.7319 30.7161 47.5601 29.8269 47.5601 28.7101V12.0212ZM64.0134 33.1925C62.8359 33.1925 61.7687 32.9961 60.8098 32.6032C59.8623 32.1999 59.0444 31.6364 58.3569 30.9126C57.6799 30.1888 57.159 29.3305 56.7944 28.3379C56.4299 27.3452 56.2476 26.2595 56.2476 25.0808V24.4294C56.2476 23.0645 56.4507 21.8495 56.8569 20.7845C57.2632 19.7091 57.8153 18.7992 58.5132 18.0547C59.2111 17.3102 60.0027 16.7466 60.8881 16.3641C61.7734 15.9815 62.6901 15.7902 63.6383 15.7902C64.8466 15.7902 65.8884 15.997 66.763 16.4106C67.6484 16.8242 68.3725 17.4032 68.9349 18.1478C69.4978 18.8819 69.9144 19.7505 70.1852 20.7535C70.4561 21.7461 70.5912 22.8318 70.5912 24.0106V25.2979H57.9663V22.9559H67.7005V22.7388C67.659 21.9942 67.5026 21.2705 67.2318 20.5674C66.9716 19.8642 66.555 19.2852 65.982 18.8302C65.4089 18.3752 64.6279 18.1478 63.6383 18.1478C62.9817 18.1478 62.3778 18.2874 61.8255 18.5665C61.2738 18.8354 60.7998 19.2386 60.4039 19.7763C60.0081 20.314 59.7005 20.9706 59.4818 21.7461C59.2632 22.5216 59.1538 23.416 59.1538 24.4294V25.0808C59.1538 25.8769 59.2632 26.6266 59.4818 27.3297C59.7112 28.0225 60.0395 28.6326 60.4661 29.1599C60.9041 29.6873 61.4297 30.1009 62.0442 30.4007C62.6694 30.7006 63.3775 30.8505 64.1692 30.8505C65.1903 30.8505 66.0549 30.6437 66.763 30.2301C67.4718 29.8165 68.091 29.2634 68.6226 28.5705L70.3725 29.9509C70.0081 30.4989 69.5446 31.0211 68.9817 31.5175C68.4193 32.0138 67.7266 32.4171 66.9041 32.7272C66.091 33.0375 65.1281 33.1925 64.0134 33.1925ZM76.8727 9.05882V32.8824H73.9666V9.05882H76.8727ZM87.2009 16.1004L79.8255 23.933L75.7005 28.1828L75.4664 25.1273L78.4193 21.622L83.6697 16.1004H87.2009ZM84.5604 32.8824L78.529 24.8791L80.0288 22.3199L87.9666 32.8824H84.5604Z" fill="#2B2828"/>
</g>
</svg>
